<svg width="23.75" height="23.75" viewBox="0 0 24 24" fill="none" xmlns="http://www.w3.org/2000/svg">
<path d="M22.9828 1.89375C24.0094 2.91891 24.0094 4.58109 22.9828 5.60625L21.5766 7.01719L16.9828 2.42437L18.3938 1.01531C19.4203 -0.0100074 21.0797 -0.0100074 22.1063 1.01531L22.9828 1.89375ZM8.08125 11.3297L15.9234 3.48469L20.5172 8.07656L12.6703 15.9187C12.3844 16.2094 12.0328 16.425 11.6438 16.5562L7.48125 17.9437C7.03594 18.075 6.63281 17.9719 6.32813 17.6297C6.02813 17.3672 5.925 16.9219 6.05625 16.5187L7.44375 12.3562C7.575 11.9672 7.79063 11.6156 8.08125 11.3297ZM9 2.95781C9.82969 2.95781 10.5 3.67172 10.5 4.45781C10.5 5.32969 9.82969 5.95781 9 5.95781H4.5C3.67172 5.95781 3 6.67031 3 7.45781V19.5C3 20.3297 3.67172 21 4.5 21H16.5C17.3297 21 18 20.3297 18 19.5V14.9578C18 14.1703 18.6703 13.4578 19.5 13.4578C20.3297 13.4578 21 14.1703 21 14.9578V19.5C21 21.9844 18.9844 24 16.5 24H4.5C2.01469 24 0 21.9844 0 19.5V7.45781C0 4.97344 2.01469 2.95781 4.5 2.95781H9Z" fill="#242424"/>
</svg>
